<svg width="128" height="128" viewBox="0 0 128 128" fill="none" xmlns="http://www.w3.org/2000/svg">
  <defs>
    <linearGradient id="bg" x1="24" y1="16" x2="104" y2="116" gradientUnits="userSpaceOnUse">
      <stop stop-color="#0E7F86"/>
      <stop offset="1" stop-color="#094F55"/>
    </linearGradient>
  </defs>
  <rect width="128" height="128" rx="28" fill="url(#bg)"/>
  <path d="M31 47C31 38.716 37.716 32 46 32H82C90.284 32 97 38.716 97 47V51H31V47Z" fill="#EAF2F4"/>
  <rect x="23" y="48" width="82" height="58" rx="18" fill="#F7FAFB"/>
  <rect x="33" y="59" width="62" height="36" rx="12" fill="#0D6B73"/>
  <path d="M55 80L47 72L55 64" stroke="#FFFFFF" stroke-width="6" stroke-linecap="round" stroke-linejoin="round"/>
  <path d="M73 64L81 72L73 80" stroke="#FFFFFF" stroke-width="6" stroke-linecap="round" stroke-linejoin="round"/>
  <path d="M62 83L67 61" stroke="#C7562C" stroke-width="6" stroke-linecap="round"/>
  <rect x="42" y="35" width="44" height="8" rx="4" fill="#0D6B73"/>
  <circle cx="94" cy="93" r="20" fill="#C7562C"/>
  <path d="M86 93L91 98L102 86" stroke="#FFFFFF" stroke-width="5.5" stroke-linecap="round" stroke-linejoin="round"/>
</svg>
